<svg width="24" height="24" viewBox="0 0 24 24" fill="none" xmlns="http://www.w3.org/2000/svg">
<path d="M19.3525 5.08283C19.831 5.34826 20.1609 5.85147 20.4834 6.28108C20.5035 6.30774 20.5237 6.3344 20.5444 6.36187C21.859 8.11367 22.5215 10.2079 22.5166 12.3924C22.5166 12.4574 22.5166 12.4574 22.5165 12.5237C22.5146 13.2247 22.4727 13.8931 22.3115 14.578C22.2965 14.6434 22.2965 14.6434 22.2811 14.7102C21.9131 16.2657 21.2122 17.7308 20.1553 18.9373C20.1234 18.9744 20.0915 19.0114 20.0586 19.0496C18.5571 20.7581 16.5816 21.9188 14.3428 22.3592C14.2937 22.3697 14.2937 22.3697 14.2437 22.3804C12.9789 22.6448 11.5187 22.5996 10.2646 22.3123C10.1976 22.2976 10.1976 22.2976 10.1291 22.2826C8.52766 21.9254 7.04556 21.1946 5.81152 20.1092C5.77554 20.0778 5.77554 20.0778 5.73883 20.0458C5.04039 19.4343 5.04039 19.4343 5 19.0223C5.02233 18.7499 5.10349 18.5558 5.30963 18.3735C5.55249 18.2214 5.84916 18.1836 6.125 18.1229C9.32732 17.3861 12.3872 15.5897 14.5303 13.078C14.5673 13.0358 14.6042 12.9936 14.6423 12.9501C16.3984 10.9323 17.7381 8.38454 18.2162 5.74214C18.2646 5.49305 18.3518 5.29236 18.5566 5.13447C18.8341 5.00223 19.0605 4.9576 19.3525 5.08283Z" fill="white"/>
<path d="M16.3595 7.59365C16.2052 8.01601 16.0048 8.41448 15.797 8.8124C15.7797 8.84554 15.7625 8.87867 15.7447 8.91281C14.8151 10.6777 13.4664 12.4509 11.8863 13.6867C11.7575 13.7876 11.6347 13.894 11.5109 14.0009C10.4076 14.9191 9.12308 15.647 7.81656 16.2333C7.78612 16.2472 7.75568 16.2611 7.72432 16.2754C7.51728 16.365 7.51728 16.365 7.35953 16.3124C7.31568 16.2279 7.31568 16.2279 7.27896 16.1172C7.26531 16.0765 7.25167 16.0358 7.2376 15.9939C7.2237 15.9501 7.20979 15.9063 7.19547 15.8612C7.18102 15.8167 7.16657 15.7723 7.15168 15.7264C6.59766 13.979 6.76856 12.1285 7.5939 10.4999C7.97705 9.77958 8.51302 9.09866 9.14078 8.57803C9.17323 8.54975 9.20568 8.52147 9.23911 8.49233C11.2096 6.82938 14.0378 6.54241 16.3595 7.59365Z" fill="white"/>
<path d="M5.35937 4.62866C5.41131 4.62685 5.41131 4.62685 5.46429 4.625C5.71566 4.65868 5.89674 4.79979 6.07152 4.97472C6.11061 5.01352 6.1497 5.05232 6.18998 5.0923C6.2313 5.13405 6.27262 5.1758 6.31519 5.21881C6.35826 5.26187 6.40134 5.30492 6.44573 5.34928C6.53656 5.44012 6.62715 5.53119 6.71756 5.62246C6.83327 5.73923 6.94949 5.85548 7.06589 5.97156C7.17723 6.08271 7.28819 6.19423 7.39917 6.30573C7.44087 6.34738 7.48257 6.38904 7.52553 6.43195C7.56403 6.4709 7.60253 6.50985 7.6422 6.54998C7.67611 6.58411 7.71003 6.61824 7.74498 6.65341C7.93902 6.87564 7.94587 7.07219 7.94061 7.35986C7.91436 7.56665 7.8415 7.68906 7.68848 7.82788C7.48674 7.97332 7.30413 7.98588 7.06317 7.99176C6.68668 7.92155 6.43188 7.62378 6.1731 7.36407C6.13228 7.3235 6.09146 7.28293 6.0494 7.24112C5.9635 7.15553 5.87778 7.06975 5.79224 6.9838C5.66149 6.85265 5.52988 6.7224 5.39819 6.59219C5.31464 6.50872 5.23115 6.4252 5.14771 6.34161C5.10845 6.30288 5.06919 6.26415 5.02874 6.22425C4.77897 5.97146 4.62017 5.7778 4.57422 5.41675C4.60755 5.14534 4.70411 4.94906 4.90234 4.7605C5.05632 4.6618 5.17973 4.63239 5.35937 4.62866Z" fill="white"/>
<path d="M13.374 1.62051C13.5746 1.80246 13.6727 1.98693 13.7047 2.25373C13.7114 2.42684 13.7122 2.599 13.7107 2.77224C13.7107 2.83619 13.7108 2.90014 13.7109 2.96409C13.711 3.0975 13.7104 3.23089 13.7093 3.36429C13.708 3.53473 13.7081 3.70512 13.7087 3.87556C13.709 4.00739 13.7087 4.13921 13.7081 4.27103C13.7078 4.36424 13.708 4.45746 13.7082 4.55067C13.7073 4.6361 13.7073 4.6361 13.7064 4.72325C13.7061 4.77313 13.7059 4.823 13.7056 4.87439C13.6773 5.09456 13.5817 5.25071 13.4501 5.42617C13.2593 5.5723 13.0816 5.61087 12.8437 5.62539C12.6065 5.5865 12.4513 5.5143 12.2812 5.34414C12.1621 5.14235 12.1228 4.99412 12.1216 4.76078C12.121 4.7018 12.1204 4.64282 12.1198 4.58205C12.1199 4.51827 12.12 4.45449 12.1202 4.39071C12.12 4.32464 12.1198 4.25857 12.1195 4.19249C12.1191 4.05431 12.1192 3.91614 12.1196 3.77796C12.1202 3.60153 12.1192 3.42515 12.1179 3.24872C12.117 3.11235 12.117 2.97599 12.1173 2.83962C12.1173 2.7746 12.117 2.70959 12.1164 2.64458C12.1115 2.01026 12.1115 2.01026 12.3281 1.73477C12.6619 1.47048 12.9885 1.4387 13.374 1.62051Z" fill="white"/>
<path d="M2.70391 12.1623C2.77108 12.1621 2.83825 12.162 2.90542 12.1617C3.04573 12.1615 3.18601 12.1619 3.32632 12.1627C3.50564 12.1638 3.68492 12.1632 3.86424 12.1621C4.00278 12.1614 4.14131 12.1616 4.27985 12.1621C4.34595 12.1622 4.41205 12.1621 4.47815 12.1616C4.57067 12.1611 4.66319 12.162 4.75571 12.1629C4.80822 12.1631 4.86074 12.1632 4.91484 12.1634C5.14845 12.2011 5.29388 12.3212 5.45177 12.4919C5.59129 12.6986 5.59487 12.8765 5.57775 13.1247C5.49131 13.3738 5.33079 13.5482 5.109 13.6872C4.93902 13.7297 4.77924 13.7404 4.6044 13.7416C4.55119 13.7421 4.49799 13.7425 4.44317 13.743C4.38609 13.7432 4.32901 13.7434 4.2702 13.7436C4.21107 13.7438 4.15195 13.7441 4.09103 13.7444C3.96601 13.7448 3.84099 13.7451 3.71597 13.7453C3.55663 13.7456 3.39731 13.7467 3.23798 13.748C3.08498 13.7491 2.93198 13.7492 2.77898 13.7494C2.72219 13.75 2.66539 13.7506 2.60687 13.7512C1.94736 13.7495 1.94736 13.7495 1.70825 13.5254C1.49664 13.2799 1.48303 13.1116 1.48681 12.7958C1.50425 12.6054 1.55388 12.5113 1.68713 12.3747C1.99875 12.1327 2.32316 12.1597 2.70391 12.1623Z" fill="white"/>
</svg>
