<svg width="14" height="14" viewBox="0 0 14 14" fill="none" xmlns="http://www.w3.org/2000/svg">
<path d="M1.16602 5.54149C1.16603 4.89235 1.36295 4.25849 1.73076 3.72362C2.09857 3.18875 2.61998 2.77804 3.22612 2.54572C3.83226 2.3134 4.49461 2.27041 5.12569 2.42243C5.75677 2.57445 6.3269 2.91432 6.76077 3.39715C6.79132 3.42983 6.82827 3.45588 6.86931 3.47369C6.91035 3.4915 6.95461 3.50069 6.99935 3.50069C7.04409 3.50069 7.08835 3.4915 7.12939 3.47369C7.17043 3.45588 7.20737 3.42983 7.23793 3.39715C7.67044 2.91118 8.24069 2.56845 8.8728 2.41459C9.50491 2.26072 10.1689 2.30302 10.7764 2.53585C11.3838 2.76868 11.906 3.181 12.2733 3.71793C12.6407 4.25486 12.8358 4.89093 12.8327 5.54149C12.8327 6.87732 11.9577 7.87482 11.0827 8.74982L7.87902 11.8491C7.77032 11.9739 7.63631 12.0742 7.48588 12.1432C7.33544 12.2123 7.17204 12.2486 7.00652 12.2496C6.84099 12.2507 6.67714 12.2165 6.52585 12.1493C6.37456 12.0822 6.23928 11.9836 6.12902 11.8602L2.91602 8.74982C2.04102 7.87482 1.16602 6.88315 1.16602 5.54149Z" stroke="#E60076" stroke-width="1.16667" stroke-linecap="round" stroke-linejoin="round"/>
</svg>
