<svg width="108" height="133" viewBox="0 0 108 133" fill="none" xmlns="http://www.w3.org/2000/svg">
<g clip-path="url(#clip0_128_4931)">
<path d="M90.1119 -1.40544C90.7752 -1.34042 91.4387 -1.27949 92.1024 -1.21949C105.328 -0.0203145 116.504 1.91301 125.725 12.3811C129.12 16.5707 131.462 21.5435 132.432 26.848C132.514 27.2884 132.514 27.2884 132.597 27.7377C133.008 30.0068 133.354 32.2832 133.664 34.5682C133.705 34.8636 133.746 35.159 133.788 35.4634C133.919 36.4779 134.035 37.4933 134.141 38.5107C134.164 38.7312 134.188 38.9518 134.212 39.179C134.683 43.8251 134.758 48.4556 134.75 53.1203C134.749 53.9228 134.751 54.7252 134.756 55.5277C134.782 59.9203 134.699 64.2759 134.307 68.653C134.291 68.8327 134.274 69.0123 134.258 69.1974C133.095 81.901 130.733 93.1727 120.533 101.71C119.499 102.527 118.418 103.26 117.308 103.967C117.069 104.121 117.069 104.121 116.826 104.279C112.724 106.892 108.377 108.156 103.598 108.899C103.33 108.942 103.33 108.942 103.058 108.985C100.688 109.353 98.3496 109.548 95.9528 109.621C90.6477 109.514 90.6477 109.514 86.1604 111.765C85.3144 112.968 84.7466 114.257 84.219 115.626C83.7358 116.771 83.0358 117.71 82.2932 118.698C82.0338 119.059 81.7752 119.421 81.5175 119.783C81.3906 119.96 81.2636 120.137 81.1328 120.319C80.7411 120.868 80.3549 121.421 79.9702 121.975C72.8738 132.193 72.8738 132.193 69.438 133C66.6872 133.332 64.3796 133.12 62.0735 131.416C60.5956 130.084 59.3817 128.611 58.2268 126.995C58.0705 126.779 57.9143 126.563 57.7533 126.341C57.2616 125.659 56.7736 124.975 56.287 124.29C56.13 124.069 55.973 123.848 55.8113 123.62C53.9105 120.935 52.0543 118.22 50.2406 115.475C50.115 115.293 49.9895 115.11 49.8601 114.923C49.4485 114.26 49.4485 114.26 49.0112 113.32C48.1297 111.507 48.1297 111.507 46.5602 110.338C45.0295 109.941 43.4588 109.923 41.8866 109.872C41.3901 109.843 40.8938 109.812 40.3976 109.779C39.4067 109.713 38.4159 109.653 37.4244 109.599C35.528 109.486 33.6569 109.252 31.7768 108.982C31.3145 108.915 31.3145 108.915 30.8428 108.847C21.4604 107.435 13.3371 102.565 7.66103 94.8775C3.24492 88.6895 1.97611 81.6976 1.00331 74.274C0.962605 73.9649 0.921898 73.6558 0.879957 73.3373C0.749692 72.287 0.634054 71.2358 0.526587 70.183C0.50337 69.9597 0.480153 69.7364 0.456232 69.5063C-0.00797353 64.895 -0.0901589 60.3013 -0.0824835 55.6717C-0.0812704 54.8802 -0.0830733 54.0888 -0.0878775 53.2973C-0.178848 38.1481 0.341873 21.1369 11.4584 9.72521C14.6386 6.55282 18.2514 4.14539 22.3573 2.3515C22.6472 2.2246 22.9371 2.09769 23.2358 1.96694C25.0262 1.25981 26.811 0.848397 28.6996 0.509106C28.9527 0.463474 29.2058 0.417842 29.4665 0.370827C32.132 -0.0965908 34.8069 -0.419454 37.4975 -0.700256C37.7581 -0.727589 38.0187 -0.754921 38.2872 -0.783082C39.9132 -0.952151 41.5398 -1.11354 43.167 -1.27008C43.8653 -1.33781 44.5633 -1.40814 45.2613 -1.47918C59.9601 -2.94615 75.4168 -2.86901 90.1119 -1.40544ZM50.7636 27.4254C50.5534 27.6309 50.3431 27.8364 50.1266 28.0481C47.3598 30.9011 44.987 35.0475 44.8456 39.0716C44.9277 41.5067 45.7227 43.1417 47.3618 44.9173C49.11 46.4838 51.0959 46.7926 53.3681 46.7649C55.5028 46.5758 57.2648 45.3894 58.6542 43.7894C59.1769 42.9441 59.5712 42.0599 59.9693 41.1501C61.5824 37.6788 61.5824 37.6788 62.8625 36.6632C63.0266 36.5311 63.1907 36.3991 63.3598 36.2631C66.0278 34.2793 69.0933 34.0268 72.3313 34.2877C74.1756 34.6099 76.2486 35.3203 77.4201 36.8673C78.4057 38.5476 78.5641 40.0326 78.3808 41.9419C77.7281 44.2304 76.3116 45.7783 74.4026 47.1216C74.2459 47.2326 74.0893 47.3435 73.928 47.4578C72.7979 48.2473 71.6358 48.9746 70.4608 49.6944C65.8195 52.549 62.1536 55.8244 60.4953 61.2092C60.1419 62.7271 60.1737 64.2269 60.1666 65.7786C60.1611 66.0696 60.1557 66.3607 60.1501 66.6606C60.1372 69.374 60.6668 71.0909 62.5564 73.0904C64.1667 74.5722 65.954 75.0145 68.1229 74.9338C70.4765 74.4822 72.2846 73.1956 73.6464 71.2387C74.3644 69.8474 74.485 68.7116 74.567 67.1477C74.6992 64.796 74.8762 63.5439 76.6475 61.934C78.0536 60.6894 79.5546 59.6793 81.1425 58.6853C83.1305 57.4328 84.989 56.1133 86.7974 54.6108C86.9852 54.461 87.1729 54.3112 87.3663 54.1568C89.8489 52.1668 91.7737 49.4178 92.8469 46.4288C92.9273 46.2083 93.0076 45.9878 93.0904 45.7607C94.5891 41.0279 93.9758 35.8 91.7948 31.3844C88.4816 25.7069 83.4837 22.2814 77.235 20.6201C67.9192 18.2463 57.559 20.4468 50.7636 27.4254ZM60.7584 83.6437C59.626 85.47 59.6586 87.464 59.657 89.5493C59.6537 89.7602 59.6505 89.9712 59.6472 90.1885C59.642 92.3497 59.8651 94.3396 61.2844 96.0487C63.6453 97.7725 67.2714 97.4273 70.0638 97.2581C71.8002 96.978 73.0111 96.3581 74.1724 94.993C75.1855 93.468 75.0094 91.3838 75.0108 89.6153C75.0156 89.2989 75.0156 89.2989 75.0206 88.9761C75.0258 86.8149 74.8027 84.8249 73.3834 83.1159C71.5715 81.7977 69.6696 82.0118 67.5147 82.0106C67.0369 82.0058 67.0369 82.0058 66.5494 82.0008C63.3719 81.9843 63.3719 81.9843 60.7584 83.6437Z" fill="#A558C3" fill-opacity="0.06"/>
</g>
<defs>
<clipPath id="clip0_128_4931">
<rect width="108" height="133" fill="white"/>
</clipPath>
</defs>
</svg>
