<svg width="20" height="20" viewBox="0 0 20 20" fill="none" xmlns="http://www.w3.org/2000/svg">
<path d="M13.6721 1.87503C13.707 1.90398 13.7419 1.93294 13.7779 1.96277C14.0202 2.17163 14.2207 2.40212 14.4143 2.65628C14.4302 2.67687 14.4462 2.69747 14.4626 2.71869C15.2259 3.71255 15.6226 4.92907 15.4812 6.18411C15.3331 7.17115 14.8734 8.00031 14.1799 8.71097C14.159 8.73286 14.138 8.75476 14.1164 8.77731C13.9564 8.94184 13.7875 9.08391 13.6038 9.22122C13.5753 9.24274 13.5469 9.26426 13.5176 9.28643C13.3011 9.44969 13.0826 9.61011 12.864 9.77054C11.7502 10.5896 11.04 11.3534 10.6258 12.7056C10.4869 13.1474 10.3062 13.5627 9.88276 13.7926C9.62652 13.9016 9.39799 13.8973 9.13844 13.8062C8.70916 13.6142 8.52921 13.2304 8.35963 12.8125C7.9704 11.7371 8.0532 10.5055 8.53358 9.47467C8.74144 9.05202 8.98084 8.66959 9.29713 8.32034C9.31634 8.29903 9.33556 8.27772 9.35536 8.25576C9.65924 7.92441 9.99788 7.6553 10.3618 7.39301C10.505 7.2895 10.6445 7.18185 10.7815 7.07034C10.8139 7.04411 10.8464 7.01787 10.8798 6.99084C11.2175 6.70417 11.4985 6.34884 11.5628 5.89847C11.5719 5.59445 11.515 5.3431 11.3674 5.07815C11.3457 5.03868 11.3239 4.9992 11.3015 4.95852C10.9766 4.54581 10.5672 4.33898 10.0491 4.26883C9.09058 4.18588 8.30055 4.42873 7.52085 4.99164C7.07 5.31673 6.5153 5.63008 5.93775 5.5469C5.46218 5.44298 5.1288 5.23956 4.844 4.84378C4.49781 4.28468 4.4219 3.6994 4.56965 3.06842C4.80593 2.24865 5.53758 1.69855 6.25178 1.29397C6.98018 0.896463 7.75763 0.661974 8.57979 0.558672C8.67265 0.546837 8.76519 0.533373 8.85783 0.519896C10.4908 0.30049 12.4073 0.809493 13.6721 1.87503Z" fill="white"/>
<path d="M9.8177 15.256C9.88194 15.2565 9.88194 15.2565 9.94749 15.257C10.5434 15.2694 11.007 15.4404 11.4559 15.842C11.8591 16.2668 12.0087 16.8718 11.9988 17.4435C11.9617 18.0532 11.7447 18.5716 11.2899 18.9841C11.254 19.0166 11.254 19.0166 11.2174 19.0498C10.7425 19.452 10.1353 19.5642 9.52747 19.5203C9.02154 19.4714 8.54142 19.2495 8.19187 18.8747C7.77711 18.3354 7.60207 17.7144 7.66773 17.0381C7.74651 16.4681 7.9866 16.0282 8.42213 15.6567C8.83425 15.346 9.3111 15.2511 9.8177 15.256Z" fill="white"/>
</svg>
