<svg width="106" height="163" viewBox="0 0 106 163" fill="none" xmlns="http://www.w3.org/2000/svg">
<g clip-path="url(#clip0_128_4908)">
<path d="M92.8217 21.8051C93.578 21.7952 93.578 21.7952 94.3495 21.785C96.0175 21.7655 97.6854 21.7563 99.3535 21.7489C100.516 21.7412 101.678 21.7335 102.841 21.7258C104.968 21.713 107.096 21.7051 109.223 21.7011C112.342 21.6951 115.459 21.6717 118.577 21.6328C121.288 21.6002 123.999 21.59 126.71 21.5877C127.858 21.5837 129.005 21.573 130.153 21.5554C141.426 21.3944 141.426 21.3944 146.236 26.036C146.993 26.6186 147.754 27.1958 148.521 27.7648C154.938 33.1528 160.599 39.2576 165.408 46.1121C165.706 46.5326 165.706 46.5326 166.011 46.9615C173.257 57.2329 178.576 68.6555 181.458 80.9107C181.576 81.4118 181.576 81.4118 181.696 81.923C184.854 96.005 182.474 111.491 174.77 123.74C172.052 127.986 168.898 131.714 165.408 135.339C165.121 135.654 164.835 135.968 164.54 136.293C159.922 141.224 153.967 144.747 148.02 147.831C147.749 147.974 147.478 148.116 147.199 148.263C138.583 152.74 128.375 155.412 118.662 155.522C118.339 155.526 118.015 155.53 117.682 155.535C107.389 155.645 98.0292 154.721 88.2588 151.263C87.4767 150.986 86.6894 150.724 85.9016 150.464C83.0757 149.466 83.0757 149.466 82.3697 148.056C81.9894 146.785 81.9215 146.349 82.4812 145.154C83.2243 144.411 83.9673 143.667 84.7104 142.924C86.5472 140.371 87.0459 138.038 86.9396 134.893C86.4543 131.952 85.0893 129.78 82.927 127.755C82.6328 127.608 82.3385 127.46 82.0354 127.309C82.2684 126.076 82.5297 124.933 82.927 123.74C83.1906 120.601 82.9366 118.115 81.5895 115.263C81.2953 114.969 81.001 114.674 80.6978 114.371C80.7868 112.858 81.318 111.827 82.0632 110.551C83.2803 108.173 83.3363 105.829 82.927 103.217C82.419 101.972 81.8455 100.863 81.1419 99.7181C80.6978 98.7561 80.6978 98.7561 80.811 97.8081C81.2479 96.7094 81.8738 95.7538 82.4812 94.7409C83.4302 91.6838 83.3331 88.5507 81.9796 85.6509C80.5172 83.057 78.7297 81.4566 75.9396 80.2989C73.5455 79.6518 71.0145 79.8015 68.5504 79.7901C67.9351 79.7826 67.3198 79.7745 66.7046 79.7659C65.0943 79.7448 63.4841 79.7314 61.8738 79.7197C60.2269 79.7064 58.5801 79.6856 56.9333 79.6655C53.7088 79.6273 50.4844 79.5972 47.2598 79.5723C48.2019 75.8823 49.1365 72.2314 50.5757 68.6977C50.7238 68.3324 50.8719 67.9671 51.0245 67.5907C54.2654 59.8304 58.2408 52.3821 63.31 45.666C63.511 45.3968 63.7121 45.1276 63.9192 44.8502C66.7715 41.0509 69.8428 37.504 73.1185 34.0665C73.4921 33.6639 73.8657 33.2613 74.2506 32.8466C77.6774 29.2621 81.535 26.1911 85.6021 23.3592C85.8849 23.1303 86.1678 22.9014 86.4592 22.6656C88.543 21.6864 90.5458 21.8123 92.8217 21.8051ZM111.238 50.2389C110.427 51.4939 110.427 51.4939 110.569 53.2503C110.045 53.2917 110.045 53.2917 109.51 53.3339C104.643 54.4257 100.922 57.3349 98.1692 61.4202C95.4362 66.0157 94.7204 70.59 95.6196 75.8986C96.7092 80.0263 99.0813 84.1491 102.544 86.7105C106.334 89.0073 106.334 89.0073 110.569 89.8334C110.569 97.4891 110.569 105.145 110.569 113.032C106.75 110.909 104.993 109.79 103.324 105.95C103.125 105.12 102.941 104.286 102.79 103.446C102.718 103.048 102.646 102.651 102.572 102.242C102.513 101.867 102.454 101.493 102.393 101.107C102.057 99.9535 101.693 99.4959 100.761 98.7561C99.7064 98.3072 99.7064 98.3072 98.5315 98.31C96.9771 99.0334 96.3722 99.5434 95.4106 100.987C94.6783 105.554 96.5308 109.804 99.1497 113.452C101.757 116.781 105.071 119.522 109.35 120.371C109.605 120.452 109.86 120.533 110.123 120.617C110.592 121.648 111.037 122.689 111.461 123.74C113.029 124.786 113.627 124.891 115.473 124.632C117.131 123.36 117.131 123.36 117.845 121.485C117.945 121.198 118.045 120.912 118.148 120.617C119.139 120.146 119.139 120.146 120.406 119.78C124.933 118.264 128.586 115.065 130.89 110.854C133.132 106.018 133.726 101.065 132.137 95.8841C131.24 93.5357 130.073 91.699 128.403 89.8334C128.179 89.5637 127.956 89.294 127.725 89.0161C125.084 86.064 121.549 84.3572 117.703 83.5875C117.703 76.0791 117.703 68.5706 117.703 60.8346C121.6 62.7847 123.644 64.2586 125.026 68.3666C125.301 69.3815 125.502 70.3977 125.7 71.4303C125.975 72.7243 126.191 73.3515 126.954 74.4696C128.32 75.3428 129.039 75.4037 130.632 75.1109C132.006 74.332 132.006 74.332 132.861 72.8803C133.669 69.0339 132.225 65.0139 130.291 61.7286C127.488 57.6594 123.746 54.4188 118.817 53.3618C118.449 53.325 118.082 53.2882 117.703 53.2503C117.634 52.6292 117.634 52.6292 117.563 51.9955C117.342 50.6278 117.342 50.6278 116.783 49.737C114.767 48.5657 112.887 48.7534 111.238 50.2389Z" fill="#A558C3" fill-opacity="0.06"/>
<path d="M16.7996 132.154C17.3272 132.151 17.8547 132.149 18.3983 132.146C18.9778 132.146 19.5573 132.145 20.1544 132.145C20.7703 132.142 21.3862 132.14 22.0021 132.138C23.6759 132.132 25.3496 132.129 27.0234 132.127C28.0691 132.126 29.1147 132.124 30.1604 132.122C33.4319 132.116 36.7034 132.112 39.975 132.11C43.7517 132.108 47.5284 132.1 51.3052 132.087C54.2245 132.077 57.1438 132.073 60.0631 132.072C61.8067 132.072 63.5503 132.069 65.2939 132.061C66.9341 132.054 68.5741 132.053 70.2143 132.057C71.1025 132.057 71.9907 132.051 72.8789 132.045C73.674 132.049 73.674 132.049 74.4852 132.052C74.945 132.052 75.4047 132.051 75.8785 132.05C77.63 132.283 78.8768 132.939 79.973 134.336C80.393 135.848 80.1837 136.95 79.8058 138.462C78.8596 139.693 78.3407 140.188 76.7984 140.471C76.3256 140.472 75.8529 140.473 75.3658 140.473C74.55 140.481 74.55 140.481 73.7178 140.489C73.1165 140.485 72.5152 140.482 71.9139 140.478C71.2796 140.48 70.6454 140.483 70.0111 140.487C68.2894 140.495 66.568 140.492 64.8463 140.487C63.0448 140.482 61.2433 140.486 59.4418 140.489C56.4164 140.492 53.3911 140.488 50.3657 140.479C46.8677 140.47 43.3699 140.473 39.8719 140.483C36.8689 140.491 33.866 140.492 30.863 140.487C29.0693 140.485 27.2756 140.484 25.4819 140.49C23.7956 140.495 22.1095 140.492 20.4232 140.481C19.8042 140.479 19.1852 140.48 18.5662 140.484C17.7216 140.488 16.8769 140.481 16.0322 140.473C15.3231 140.472 15.3231 140.472 14.5996 140.471C13.0707 140.191 12.5554 139.656 11.5922 138.462C10.9561 137.189 11.008 136.305 11.1463 134.893C12.7214 132.448 14.0035 132.162 16.7996 132.154Z" fill="#A558C3" fill-opacity="0.06"/>
<path d="M12.7471 116.979C13.5422 116.974 13.5422 116.974 14.3533 116.968C14.9379 116.966 15.5225 116.964 16.1248 116.962C16.7443 116.959 17.3638 116.955 17.9833 116.951C20.021 116.939 22.0587 116.932 24.0964 116.926C24.7977 116.924 25.499 116.921 26.2003 116.919C29.1178 116.909 32.0352 116.901 34.9526 116.896C39.1341 116.889 43.3154 116.874 47.4968 116.848C50.4366 116.831 53.3763 116.822 56.3161 116.82C58.072 116.818 59.8277 116.813 61.5836 116.799C63.2363 116.785 64.8886 116.782 66.5413 116.788C67.4353 116.788 68.3293 116.777 69.2232 116.766C73.6048 116.796 73.6048 116.796 75.2614 118.122C76.5974 119.703 76.5974 119.703 76.5454 121.063C76.5471 121.349 76.5488 121.634 76.5506 121.928C76.0454 123.419 75.3659 124.316 74.0096 125.079C71.9806 125.424 69.9506 125.384 67.8985 125.367C67.2693 125.37 66.64 125.374 66.0108 125.379C64.3048 125.389 62.599 125.385 60.893 125.378C59.1065 125.373 57.3201 125.378 55.5337 125.381C52.5338 125.385 49.5341 125.38 46.5343 125.369C43.0674 125.357 39.6008 125.361 36.1339 125.373C33.1558 125.384 30.1779 125.385 27.1998 125.379C25.4218 125.376 23.6439 125.375 21.8659 125.383C20.1941 125.389 18.5227 125.385 16.851 125.372C16.238 125.369 15.6249 125.37 15.0119 125.374C9.80087 125.412 9.80087 125.412 8.32954 124.004C7.1591 122.2 7.27668 121.399 7.57936 119.279C9.1242 117.269 10.2988 116.993 12.7471 116.979Z" fill="#A558C3" fill-opacity="0.06"/>
<path d="M15.8858 101.612C16.5113 101.611 17.1369 101.609 17.7625 101.607C19.4584 101.602 21.1539 101.612 22.8498 101.624C24.6251 101.634 26.4004 101.633 28.1758 101.633C31.1565 101.635 34.1372 101.646 37.1179 101.662C40.5639 101.681 44.0099 101.689 47.456 101.69C51.1255 101.692 54.7949 101.7 58.4644 101.711C59.5216 101.714 60.5789 101.715 61.6361 101.717C63.2971 101.719 64.9581 101.727 66.6191 101.738C67.5196 101.743 68.4201 101.743 69.3206 101.744C69.8563 101.748 70.392 101.752 70.9439 101.757C71.6423 101.76 71.6423 101.76 72.3548 101.763C73.5992 101.883 74.3119 102.082 75.3471 102.772C76.4373 104.408 76.5608 105.776 76.2388 107.679C75.405 108.764 74.7758 109.303 73.5637 109.91C72.7272 109.956 71.8889 109.974 71.0511 109.978C70.5166 109.982 69.9822 109.986 69.4315 109.99C68.8361 109.992 68.2407 109.994 67.6453 109.996C67.0207 109.999 66.3961 110.003 65.7714 110.007C63.7171 110.019 61.6629 110.025 59.6086 110.032C58.9017 110.034 58.1948 110.037 57.488 110.039C54.548 110.049 51.608 110.057 48.668 110.062C44.4528 110.069 40.2378 110.084 36.0227 110.109C33.0599 110.127 30.0971 110.135 27.1342 110.138C25.3641 110.139 23.5942 110.145 21.8241 110.159C20.1586 110.173 18.4935 110.176 16.828 110.17C15.9259 110.17 15.0239 110.181 14.1219 110.192C9.71472 110.162 9.71472 110.162 8.33166 108.836C7.61303 107.731 7.27445 107.194 7.30062 105.895C7.29487 105.609 7.28912 105.324 7.2832 105.03C8.59491 100.953 12.3009 101.571 15.8858 101.612Z" fill="#A558C3" fill-opacity="0.06"/>
<path d="M15.9185 86.4227C16.5478 86.4197 17.177 86.4157 17.8062 86.4109C19.5123 86.4007 21.218 86.4046 22.9241 86.4117C24.7105 86.4174 26.4969 86.4121 28.2833 86.4086C31.2832 86.4046 34.2829 86.4099 37.2828 86.4205C40.7497 86.4327 44.2163 86.4287 47.6832 86.4165C50.6612 86.4063 53.6391 86.4049 56.6172 86.4107C58.3952 86.4142 60.1731 86.4147 61.9511 86.4073C63.6229 86.4009 65.2943 86.4053 66.966 86.4182C67.5791 86.4212 68.1921 86.4203 68.8051 86.4154C74.0163 86.3774 74.0163 86.3774 75.4855 87.7872C76.1993 88.8831 76.552 89.4356 76.5442 90.7266C76.5551 91.0118 76.566 91.2971 76.5773 91.591C75.9986 93.159 75.0147 94.0091 73.5626 94.7418C71.5378 95.0753 69.5308 95.0372 67.4827 95.0163C66.8622 95.0178 66.2417 95.0204 65.6212 95.0238C63.9409 95.0301 62.261 95.0225 60.5808 95.012C58.8206 95.0031 57.0603 95.0057 55.3001 95.0067C52.3449 95.0067 49.3898 94.9979 46.4346 94.9836C43.0196 94.9671 39.6049 94.9632 36.1899 94.9663C32.9019 94.9691 29.614 94.9643 26.3261 94.9556C24.928 94.952 23.5299 94.9508 22.1318 94.9515C20.4853 94.9519 18.8391 94.9455 17.1926 94.934C16.3013 94.9293 15.4099 94.9311 14.5186 94.9331C13.9867 94.928 13.4548 94.923 12.9068 94.9177C12.4454 94.9161 11.9841 94.9144 11.5088 94.9127C10.0507 94.7142 9.20592 94.2674 8.02402 93.4034C7.32005 91.9945 7.21291 90.4559 7.57818 88.942C9.56642 85.8615 12.5726 86.3958 15.9185 86.4227Z" fill="#A558C3" fill-opacity="0.06"/>
<path d="M13.2151 147.323C13.7389 147.32 14.2627 147.318 14.8024 147.315C15.3777 147.314 15.9531 147.314 16.5458 147.313C17.1574 147.311 17.7689 147.309 18.3804 147.307C20.0422 147.301 21.704 147.298 23.3658 147.296C24.404 147.295 25.4422 147.293 26.4803 147.291C29.7285 147.285 32.9767 147.28 36.2249 147.279C39.9747 147.277 43.7244 147.269 47.4741 147.256C50.3726 147.246 53.2711 147.242 56.1696 147.241C57.9007 147.241 59.6319 147.238 61.363 147.23C62.9915 147.223 64.6198 147.222 66.2483 147.226C67.1301 147.226 68.0119 147.22 68.8937 147.214C69.6832 147.218 69.6832 147.218 70.4886 147.221C70.9451 147.221 71.4016 147.22 71.872 147.219C73.3382 147.415 74.1615 147.849 75.3465 148.724C76.4613 150.397 76.4772 151.204 76.2382 153.185C75.5051 154.37 75.2047 154.783 74.009 155.416C71.9627 155.755 69.918 155.716 67.8499 155.697C67.2155 155.7 66.5812 155.703 65.9468 155.707C64.227 155.715 62.5075 155.71 60.7876 155.701C58.9873 155.693 57.187 155.697 55.3867 155.7C52.364 155.702 49.3414 155.695 46.3187 155.682C42.8239 155.668 39.3294 155.668 35.8347 155.676C32.4722 155.683 29.1098 155.68 25.7473 155.672C24.3165 155.669 22.8857 155.669 21.4549 155.673C19.7703 155.676 18.086 155.671 16.4016 155.658C15.7833 155.655 15.165 155.655 14.5468 155.659C13.7031 155.662 12.8594 155.654 12.0158 155.645C11.5436 155.644 11.0714 155.643 10.5849 155.642C9.05684 155.359 8.52902 154.837 7.57873 153.631C7.25172 152.265 7.32295 150.995 7.57873 149.616C9.11424 147.497 10.7246 147.33 13.2151 147.323Z" fill="#A558C3" fill-opacity="0.06"/>
<path d="M87.9172 6.73275C88.3967 6.72895 88.8761 6.72514 89.3701 6.72122C89.8961 6.72163 90.4221 6.72203 90.964 6.72245C91.518 6.71945 92.0719 6.71645 92.6427 6.71337C94.1626 6.70633 95.6824 6.70339 97.2024 6.70282C98.471 6.70198 99.7396 6.69869 101.008 6.69553C104.001 6.68827 106.994 6.68609 109.987 6.68672C113.075 6.68726 116.163 6.67784 119.25 6.66375C121.901 6.65209 124.552 6.6473 127.203 6.64787C128.786 6.6481 130.37 6.64555 131.953 6.63611C133.719 6.62587 135.484 6.62992 137.25 6.63531C138.037 6.62779 138.037 6.62779 138.841 6.62012C139.322 6.62386 139.802 6.6276 140.298 6.63146C140.715 6.63097 141.132 6.63049 141.563 6.62999C143.019 6.92216 143.542 7.48369 144.453 8.6366C144.927 10.3777 145.076 11.3397 144.369 13.0143C143.287 14.3214 142.397 14.8164 140.702 14.9973C140.099 14.9995 140.099 14.9995 139.483 15.0018C139.019 15.0056 138.555 15.0094 138.077 15.0133C137.571 15.0129 137.065 15.0125 136.543 15.0121C135.74 15.0166 135.74 15.0166 134.921 15.0212C133.455 15.0282 131.988 15.0312 130.522 15.0317C129.605 15.0324 128.688 15.0343 127.771 15.0366C124.571 15.0449 121.371 15.0485 118.17 15.0478C115.19 15.0473 112.21 15.0567 109.229 15.0708C106.668 15.0825 104.107 15.0873 101.546 15.0867C100.017 15.0865 98.4889 15.089 96.9603 15.0985C95.2547 15.1072 93.5495 15.1046 91.8439 15.0993C91.3393 15.1043 90.8348 15.1093 90.315 15.1144C87.5803 15.0925 85.8796 14.9725 83.8185 13.098C83.1605 11.5931 83.2119 10.0382 83.707 8.4693C84.9314 6.87664 86.0336 6.7395 87.9172 6.73275Z" fill="#A558C3" fill-opacity="0.06"/>
<path d="M110.569 60.835C110.569 68.049 110.569 75.263 110.569 82.6956C107.121 81.5455 105.237 80.0503 103.435 76.8958C102.085 74.0591 102.008 70.6232 102.918 67.6368C104.274 64.6455 106.979 60.835 110.569 60.835Z" fill="#A558C3" fill-opacity="0.06"/>
</g>
<defs>
<clipPath id="clip0_128_4908">
<rect width="106" height="163" fill="white"/>
</clipPath>
</defs>
</svg>
