<svg width="20" height="20" viewBox="0 0 20 20" fill="none" xmlns="http://www.w3.org/2000/svg">
<path fill-rule="evenodd" clip-rule="evenodd" d="M3.33398 5.66699V6.66699H2.33398C1.93616 6.66699 1.55463 6.82503 1.27332 7.10633C0.99202 7.38764 0.833984 7.76917 0.833984 8.16699V15.167C0.833984 15.5648 0.99202 15.9463 1.27332 16.2277C1.55463 16.509 1.93616 16.667 2.33398 16.667H16.0007C16.1976 16.667 16.3927 16.6282 16.5747 16.5528C16.7567 16.4774 16.922 16.3669 17.0613 16.2277C17.2006 16.0884 17.3111 15.923 17.3865 15.741C17.4619 15.559 17.5007 15.364 17.5007 15.167V14.167H18.5007C19.3273 14.167 20.0007 13.4937 20.0007 12.667V5.66699C20.0007 4.84033 19.3273 4.16699 18.5007 4.16699H4.83398C4.00732 4.16699 3.33398 4.84033 3.33398 5.66699ZM5.00065 5.83366V6.66699H16.0007C16.1976 6.66699 16.3927 6.70579 16.5747 6.78117C16.7567 6.85656 16.922 6.96704 17.0613 7.10633C17.2006 7.24562 17.3111 7.41098 17.3865 7.59297C17.4619 7.77496 17.5007 7.97001 17.5007 8.16699V12.5003H18.334V5.83366H5.00065ZM7.50065 11.667C7.50065 11.225 7.67625 10.801 7.98881 10.4885C8.30137 10.1759 8.72529 10.0003 9.16732 10.0003C9.60935 10.0003 10.0333 10.1759 10.3458 10.4885C10.6584 10.801 10.834 11.225 10.834 11.667C10.834 12.109 10.6584 12.5329 10.3458 12.8455C10.0333 13.1581 9.60935 13.3337 9.16732 13.3337C8.72529 13.3337 8.30137 13.1581 7.98881 12.8455C7.67625 12.5329 7.50065 12.109 7.50065 11.667Z" fill="white"/>
</svg>
