<svg width="20" height="20" viewBox="0 0 20 20" fill="none" xmlns="http://www.w3.org/2000/svg">
<path d="M9.9727 0.00905529C10.4085 0.198545 10.5523 0.711605 10.7153 1.12309C10.7445 1.19748 10.7737 1.27187 10.8029 1.34626C10.834 1.42465 10.8651 1.50303 10.8962 1.58139C10.9623 1.74785 11.0282 1.91439 11.0938 2.081C11.1963 2.34096 11.2993 2.60073 11.4024 2.86045C11.4195 2.90359 11.4366 2.94672 11.4543 2.99117C11.4889 3.07836 11.5235 3.16555 11.5581 3.25275C11.6101 3.38371 11.662 3.5147 11.7139 3.64569C12.0199 4.41741 12.3302 5.18735 12.6426 5.95653C12.6654 6.01278 12.6882 6.06902 12.7118 6.12697C12.8345 6.42935 12.9574 6.73168 13.0803 7.03395C13.6747 6.75798 14.2615 6.46932 14.8452 6.17175C15.1333 6.02516 15.422 5.87982 15.7106 5.73419C15.9624 5.60701 16.214 5.47943 16.4652 5.35104C16.7108 5.22552 16.957 5.10111 17.2036 4.97742C17.2967 4.93048 17.3895 4.88314 17.4822 4.8354C18.4352 4.34491 18.4352 4.34491 18.8782 4.44583C19.105 4.55075 19.2382 4.68131 19.342 4.908C19.4068 5.44015 19.2659 5.96993 19.1596 6.48769C19.14 6.58552 19.1204 6.68335 19.1009 6.7812C19.0481 7.04529 18.9945 7.30924 18.9408 7.57316C18.8846 7.84968 18.8291 8.12632 18.7735 8.40295C18.6802 8.86685 18.5865 9.33065 18.4924 9.7944C18.3596 10.4491 18.2277 11.104 18.0959 11.759C18.0046 12.2124 17.9131 12.6658 17.8216 13.1192C17.7994 13.2293 17.7772 13.3393 17.755 13.4493C17.6918 13.7624 17.6285 14.0755 17.565 14.3886C17.5457 14.4836 17.5265 14.5786 17.5074 14.6736C17.4813 14.8028 17.4551 14.9319 17.4288 15.061C17.4174 15.118 17.4174 15.118 17.4057 15.1761C17.3528 15.4348 17.3528 15.4348 17.3012 15.5378C12.2807 15.5378 7.26025 15.5378 2.08766 15.5378C2.00587 15.2118 1.92559 14.8897 1.85958 14.5608C1.84776 14.5027 1.84776 14.5027 1.83569 14.4435C1.80972 14.3157 1.78393 14.1879 1.75815 14.06C1.7394 13.9676 1.72064 13.8751 1.70188 13.7827C1.6407 13.481 1.57981 13.1793 1.51893 12.8776C1.49787 12.7733 1.4768 12.669 1.45574 12.5647C1.36813 12.1308 1.28059 11.6968 1.19324 11.2628C1.06844 10.6428 0.943252 10.0229 0.817494 9.40312C0.728848 8.96606 0.64065 8.52892 0.552782 8.0917C0.500392 7.83108 0.447813 7.57049 0.394757 7.31C0.344868 7.065 0.295537 6.8199 0.246621 6.57471C0.228649 6.48512 0.210482 6.39556 0.192096 6.30605C-0.0509074 5.12149 -0.0509075 5.12149 0.122197 4.74335C0.327595 4.5333 0.466599 4.43474 0.764807 4.42602C1.09262 4.43129 1.32885 4.53866 1.61582 4.68766C1.66747 4.71335 1.71913 4.73905 1.77234 4.76552C1.91246 4.83548 2.05201 4.90639 2.1914 4.97778C2.3377 5.05242 2.48465 5.12578 2.63153 5.19928C2.90892 5.33834 3.18573 5.47852 3.46234 5.61912C3.77755 5.77927 4.0934 5.93815 4.40931 6.09692C5.05854 6.42327 5.70696 6.75119 6.35486 7.08017C6.36093 7.0463 6.36699 7.01244 6.37324 6.97755C6.39913 6.85879 6.43311 6.75503 6.47817 6.64238C6.49407 6.60234 6.50998 6.56229 6.52637 6.52103C6.54383 6.47766 6.5613 6.43429 6.57929 6.3896C6.60691 6.32031 6.60691 6.32031 6.6351 6.24962C6.69628 6.0963 6.75775 5.9431 6.81923 5.7899C6.86234 5.68209 6.90543 5.57428 6.94851 5.46646C7.03928 5.2394 7.13018 5.01239 7.22119 4.78543C7.3359 4.49937 7.45034 4.21321 7.5647 3.92702C7.78207 3.38308 8.00018 2.83944 8.21928 2.29618C8.32983 2.02192 8.43967 1.74739 8.54851 1.47244C8.60762 1.32346 8.66735 1.17474 8.72727 1.02609C8.75373 0.960018 8.77993 0.893843 8.80583 0.827551C9.0472 0.210272 9.27444 -0.053864 9.9727 0.00905529ZM8.59536 9.48703C8.24373 10.0193 8.13044 10.5619 8.23317 11.197C8.33115 11.592 8.50905 11.8913 8.81314 12.164C8.84758 12.1954 8.88202 12.2269 8.9175 12.2593C9.19075 12.4511 9.46296 12.5733 9.80239 12.557C10.2557 12.4718 10.6168 12.1919 10.9004 11.8405C11.2095 11.3823 11.2427 10.7986 11.1555 10.2662C11.0585 9.87092 10.8797 9.57122 10.5757 9.29856C10.5412 9.2671 10.5068 9.23565 10.4713 9.20324C10.1978 9.0112 9.92664 8.89089 9.58715 8.90464C9.21876 8.97613 8.83315 9.19659 8.59536 9.48703Z" fill="white"/>
<path d="M2.27402 17.0166C7.17202 17.0166 12.07 17.0166 17.1165 17.0166C17.1165 19.5123 17.1165 19.5123 16.9309 19.7896C16.6796 20.0247 16.4187 20.0005 16.0928 19.9979C16.0075 19.9984 16.0075 19.9984 15.9205 19.9988C15.763 19.9994 15.6055 19.9992 15.448 19.9986C15.278 19.9982 15.1081 19.9988 14.9381 19.9994C14.6052 20.0002 14.2724 20 13.9395 19.9995C13.669 19.999 13.3985 19.999 13.128 19.9992C13.0895 19.9992 13.051 19.9992 13.0113 19.9993C12.9331 19.9993 12.8549 19.9994 12.7767 19.9995C12.0433 20 11.3099 19.9994 10.5765 19.9984C9.94718 19.9976 9.31789 19.9977 8.68859 19.9986C7.95781 19.9995 7.22703 19.9999 6.49625 19.9994C6.41832 19.9993 6.3404 19.9992 6.26247 19.9992C6.22413 19.9992 6.18579 19.9991 6.14629 19.9991C5.8761 19.9989 5.60591 19.9992 5.33573 19.9997C5.00646 20.0002 4.6772 20 4.34793 19.999C4.17993 19.9986 4.01194 19.9984 3.84394 19.999C3.66185 19.9996 3.47979 19.9989 3.2977 19.9979C3.21799 19.9985 3.21799 19.9985 3.13667 19.9992C2.85839 19.9964 2.67193 19.9883 2.45955 19.7896C1.94384 19.0188 2.27402 17.943 2.27402 17.0166Z" fill="white"/>
</svg>
