<svg width="130" height="159" viewBox="0 0 130 159" fill="none" xmlns="http://www.w3.org/2000/svg">
<g clip-path="url(#clip0_128_4941)">
<path d="M113.518 -28.1867C117.589 -26.4115 118.933 -21.605 120.455 -17.7501C120.728 -17.0532 121.001 -16.3563 121.273 -15.6593C121.564 -14.925 121.854 -14.1907 122.145 -13.4566C122.762 -11.8972 123.378 -10.337 123.991 -8.77608C124.949 -6.34071 125.911 -3.90714 126.874 -1.474C127.034 -1.06988 127.194 -0.665754 127.358 -0.249382C127.682 0.567469 128.005 1.38431 128.328 2.20115C128.814 3.42809 129.299 4.65521 129.784 5.88236C132.642 13.112 135.541 20.3251 138.459 27.531C138.672 28.0579 138.885 28.5848 139.105 29.1276C140.251 31.9605 141.399 34.7927 142.548 37.6245C148.1 35.0391 153.581 32.3349 159.034 29.5472C161.725 28.1738 164.422 26.8123 167.118 25.448C169.47 24.2566 171.821 23.0614 174.167 21.8585C176.462 20.6827 178.761 19.5171 181.065 18.3584C181.934 17.9186 182.802 17.4752 183.668 17.0279C192.57 12.4328 192.57 12.4328 196.708 13.3783C198.826 14.3612 200.071 15.5843 201.04 17.708C201.646 22.6934 200.329 27.6565 199.337 32.507C199.154 33.4235 198.971 34.34 198.789 35.2567C198.295 37.7308 197.794 40.2035 197.293 42.676C196.768 45.2665 196.249 47.8581 195.73 50.4497C194.858 54.7956 193.983 59.1407 193.104 63.4852C191.864 69.6189 190.632 75.7542 189.4 81.8898C188.548 86.1379 187.693 90.3856 186.838 94.6332C186.63 95.6638 186.423 96.6945 186.216 97.7251C185.626 100.659 185.034 103.592 184.441 106.525C184.261 107.415 184.082 108.305 183.903 109.195C183.659 110.405 183.414 111.615 183.169 112.825C183.062 113.358 183.062 113.358 182.953 113.903C182.459 116.326 182.459 116.326 181.976 117.291C135.078 117.291 88.1802 117.291 39.861 117.291C39.097 114.237 38.3471 111.219 37.7305 108.139C37.62 107.594 37.62 107.594 37.5073 107.039C37.2647 105.842 37.0238 104.644 36.7829 103.447C36.6078 102.581 36.4326 101.715 36.2573 100.849C35.6858 98.0226 35.117 95.1962 34.5483 92.3697C34.3515 91.3925 34.1548 90.4152 33.958 89.438C33.1396 85.3729 32.3218 81.3076 31.5059 77.242C30.3401 71.4337 29.1707 65.6261 27.9959 59.8196C27.1678 55.7251 26.3439 51.6298 25.5231 47.5338C25.0337 45.0922 24.5426 42.651 24.047 40.2106C23.5809 37.9154 23.1201 35.6192 22.6632 33.3222C22.4953 32.4829 22.3256 31.6439 22.1538 30.8054C19.8838 19.7081 19.8838 19.708 21.5009 16.1656C23.4196 14.1978 24.7181 13.2744 27.5037 13.1927C30.566 13.2421 32.7727 14.2479 35.4533 15.6438C35.9359 15.8845 36.4184 16.1252 36.9155 16.3732C38.2244 17.0287 39.528 17.693 40.8301 18.3618C42.1968 19.061 43.5694 19.7482 44.9415 20.4368C47.5327 21.7396 50.1185 23.0528 52.7025 24.37C55.6469 25.8703 58.5974 27.3587 61.5484 28.8462C67.6132 31.9035 73.6704 34.9755 79.7226 38.0575C79.7793 37.7403 79.8359 37.423 79.8943 37.0961C80.1361 35.9836 80.4536 35.0115 80.8745 33.9562C81.0231 33.581 81.1717 33.2059 81.3248 32.8194C81.4879 32.413 81.651 32.0067 81.8191 31.588C82.0771 30.9389 82.0771 30.9389 82.3404 30.2767C82.912 28.8404 83.4862 27.4051 84.0605 25.9699C84.4632 24.9599 84.8657 23.9499 85.2682 22.9398C86.1161 20.8127 86.9652 18.686 87.8154 16.5597C88.8869 13.8799 89.9559 11.1991 91.0242 8.51798C93.0548 3.42217 95.0922 -1.67082 97.1389 -6.7602C98.1716 -9.32962 99.1977 -11.9015 100.214 -14.4773C100.767 -15.8729 101.324 -17.2662 101.884 -18.6588C102.131 -19.2778 102.376 -19.8977 102.618 -20.5188C104.873 -26.3016 106.996 -28.7761 113.518 -28.1867ZM100.652 60.6057C97.3673 65.592 96.309 70.6754 97.2687 76.6255C98.184 80.3254 99.8458 83.1293 102.686 85.684C103.008 85.9787 103.33 86.2734 103.661 86.577C106.214 88.3741 108.757 89.5185 111.927 89.366C116.162 88.5679 119.535 85.9461 122.184 82.6533C125.072 78.3612 125.382 72.8928 124.567 67.9053C123.661 64.202 121.991 61.3944 119.151 58.84C118.829 58.5453 118.507 58.2506 118.176 57.947C115.621 56.148 113.088 55.0209 109.917 55.1496C106.475 55.8194 102.873 57.8848 100.652 60.6057Z" fill="#A558C3" fill-opacity="0.06"/>
<path d="M41.5955 131.146C87.3497 131.146 133.104 131.146 180.244 131.146C180.244 154.526 180.244 154.526 178.511 157.124C176.164 159.327 173.727 159.099 170.682 159.075C169.885 159.079 169.885 159.079 169.072 159.084C167.601 159.089 166.13 159.087 164.659 159.082C163.071 159.078 161.483 159.084 159.895 159.089C156.786 159.096 153.677 159.095 150.568 159.09C148.041 159.086 145.514 159.085 142.987 159.087C142.627 159.088 142.268 159.088 141.897 159.088C141.166 159.089 140.436 159.089 139.705 159.09C132.854 159.095 126.003 159.089 119.152 159.08C113.273 159.072 107.395 159.073 101.516 159.081C94.69 159.091 87.8635 159.094 81.037 159.089C80.309 159.088 79.5811 159.088 78.8532 159.087C78.495 159.087 78.1369 159.087 77.7678 159.086C75.2439 159.085 72.72 159.087 70.1961 159.092C67.1202 159.096 64.0445 159.095 60.9686 159.086C59.3993 159.081 57.83 159.08 56.2607 159.085C54.5597 159.091 52.859 159.084 51.1581 159.075C50.4134 159.081 50.4134 159.081 49.6538 159.087C47.0543 159.061 45.3125 158.985 43.3286 157.124C38.5111 149.903 41.5955 139.824 41.5955 131.146Z" fill="#A558C3" fill-opacity="0.06"/>
</g>
<defs>
<clipPath id="clip0_128_4941">
<rect width="130" height="159" fill="white"/>
</clipPath>
</defs>
</svg>
