<svg width="20" height="20" viewBox="0 0 20 20" fill="none" xmlns="http://www.w3.org/2000/svg">
<g clip-path="url(#clip0_128_4889)">
<path d="M13.5936 10.4684C13.6258 10.4953 13.6579 10.5222 13.6911 10.5499C14.5883 11.3253 15.1957 12.4777 15.2845 13.6653C15.3098 14.0867 15.3181 14.5065 15.3175 14.9285C15.3176 14.9938 15.3176 15.0592 15.3176 15.1245C15.3177 15.2599 15.3176 15.3953 15.3174 15.5308C15.3172 15.7031 15.3173 15.8753 15.3176 16.0476C15.3177 16.182 15.3177 16.3163 15.3176 16.4506C15.3175 16.5141 15.3176 16.5776 15.3177 16.6411C15.319 17.8546 15.319 17.8546 14.9246 18.3331C14.5394 18.699 13.9642 18.7045 13.4605 18.7319C13.4299 18.7336 13.3994 18.7353 13.3679 18.737C13.0517 18.7531 12.7361 18.7553 12.4196 18.7548C12.3559 18.7549 12.2923 18.7549 12.2286 18.755C12.0212 18.7552 11.8137 18.7549 11.6063 18.7545C11.5339 18.7544 11.4616 18.7543 11.3892 18.7543C10.9196 18.7536 10.45 18.7522 9.98046 18.7505C9.80789 18.7499 9.63531 18.7494 9.46273 18.7489C8.96954 18.7475 8.47637 18.7456 7.98319 18.7423C7.76561 18.7409 7.54804 18.7397 7.33046 18.7391C7.12487 18.7385 6.91929 18.7372 6.71371 18.7353C6.63805 18.7347 6.56239 18.7344 6.48673 18.7343C5.92922 18.7338 5.50398 18.701 5.08437 18.2954C4.73343 17.9109 4.68134 17.4841 4.68167 16.9822C4.68147 16.937 4.68147 16.937 4.68127 16.8909C4.6809 16.7924 4.68082 16.6939 4.68078 16.5954C4.68065 16.5259 4.68052 16.4563 4.68039 16.3868C4.68015 16.2412 4.68008 16.0956 4.6801 15.9501C4.68011 15.7657 4.67958 15.5813 4.6789 15.3969C4.67846 15.2531 4.67839 15.1094 4.67841 14.9657C4.67836 14.8978 4.67819 14.83 4.67789 14.7621C4.67538 14.1507 4.70241 13.5344 4.85336 12.9391C4.8618 12.905 4.87024 12.871 4.87894 12.8359C5.20719 11.5618 6.03105 10.6201 7.1434 9.94837C9.05885 8.89477 11.9233 9.05489 13.5936 10.4684Z" fill="#A65FC2"/>
<path d="M12.1723 2.00218C12.8141 2.52161 13.3015 3.3126 13.3985 4.1407C13.44 4.71454 13.4357 5.2744 13.2423 5.82039C13.2281 5.86173 13.214 5.90307 13.1994 5.94566C13.0234 6.4103 12.7288 6.79662 12.3829 7.14851C12.3561 7.1758 12.3293 7.2031 12.3017 7.23122C11.6162 7.88373 10.7017 8.11274 9.78097 8.09578C8.97812 8.0678 8.24972 7.71382 7.65634 7.18757C7.62904 7.16401 7.60175 7.14044 7.57363 7.11616C6.98256 6.5702 6.61662 5.73629 6.58471 4.93706C6.58379 4.84983 6.58375 4.76259 6.58456 4.67537C6.58491 4.62925 6.58526 4.58313 6.58563 4.53562C6.60466 3.57211 7.01835 2.76058 7.70516 2.09724C8.98333 0.991798 10.8526 0.973951 12.1723 2.00218Z" fill="#A65FC2"/>
<path d="M2.97501 9.36012C3.06156 9.36075 3.14804 9.36013 3.2346 9.35938C4.01321 9.35822 4.62237 9.52413 5.27378 9.96134C5.2136 10.1036 5.12692 10.1953 5.01987 10.3056C4.78287 10.5588 4.59484 10.8378 4.41441 11.1332C4.4002 11.1564 4.38599 11.1795 4.37136 11.2034C3.69681 12.3246 3.57876 13.6678 3.58646 14.9475C3.58661 15.0207 3.58672 15.094 3.5868 15.1673C3.58709 15.357 3.58786 15.5468 3.58873 15.7365C3.58954 15.9314 3.58989 16.1263 3.59028 16.3211C3.59111 16.7012 3.59244 17.0813 3.59409 17.4613C3.24942 17.465 2.90475 17.4677 2.56006 17.4694C2.39997 17.4702 2.23989 17.4713 2.07981 17.4731C1.92506 17.4748 1.77031 17.4758 1.61555 17.4762C1.55678 17.4765 1.49801 17.477 1.43924 17.4779C1.00419 17.4839 0.626481 17.4478 0.294685 17.1403C0.109775 16.9257 -0.00410473 16.6834 -0.00540555 16.4003C-0.00568505 16.3585 -0.00596455 16.3167 -0.00625253 16.2737C-0.00635756 16.2278 -0.0064626 16.182 -0.00657082 16.1348C-0.0068275 16.0865 -0.00708419 16.0382 -0.00734866 15.9884C-0.00812055 15.8281 -0.0085756 15.6678 -0.00896454 15.5075C-0.00912272 15.4521 -0.00928361 15.3967 -0.00944704 15.3414C-0.0101915 15.081 -0.0107471 14.8205 -0.0110725 14.5601C-0.0114529 14.2606 -0.0124776 13.9611 -0.0140607 13.6616C-0.0152448 13.4295 -0.0158178 13.1974 -0.0159466 12.9653C-0.0160379 12.827 -0.0163801 12.6887 -0.0173709 12.5504C-0.0184625 12.3955 -0.0182852 12.2406 -0.0180149 12.0857C-0.0185153 12.0407 -0.0190157 11.9958 -0.0195312 11.9494C-0.0151208 11.2505 0.259456 10.6387 0.747108 10.1458C1.38477 9.54358 2.12231 9.35282 2.97501 9.36012Z" fill="#A65FC2"/>
<path d="M16.8402 9.36222C16.9283 9.36235 17.0164 9.36143 17.1045 9.36044C17.5968 9.3582 18.0899 9.39734 18.5303 9.63823C18.5563 9.65187 18.5823 9.66551 18.6091 9.67957C18.817 9.79156 19.0042 9.91899 19.1797 10.0777C19.2035 10.0984 19.2273 10.1191 19.2519 10.1404C19.6575 10.5157 19.9687 11.1144 20.0075 11.6693C20.0107 11.7966 20.0114 11.9236 20.0113 12.0509C20.0116 12.0992 20.0119 12.1474 20.0121 12.1971C20.0128 12.3287 20.013 12.4602 20.0131 12.5918C20.0131 12.6742 20.0133 12.7566 20.0135 12.8389C20.0142 13.1268 20.0145 13.4147 20.0145 13.7025C20.0144 13.9701 20.0153 14.2377 20.0165 14.5052C20.0175 14.7356 20.0179 14.9661 20.0179 15.1965C20.0179 15.3338 20.0181 15.4711 20.0189 15.6085C20.0198 15.7617 20.0194 15.9149 20.019 16.0681C20.0194 16.1131 20.0199 16.1581 20.0203 16.2045C20.0173 16.592 19.9122 16.8712 19.6484 17.1561C19.3943 17.3839 19.1398 17.4656 18.8045 17.4649C18.7662 17.4649 18.7662 17.4649 18.7271 17.4649C18.643 17.4649 18.5589 17.4646 18.4747 17.4643C18.4163 17.4642 18.3578 17.4642 18.2994 17.4641C18.1458 17.464 17.9922 17.4636 17.8385 17.4632C17.6817 17.4628 17.5249 17.4626 17.368 17.4624C17.0604 17.462 16.7529 17.4613 16.4453 17.4605C16.3971 17.3117 16.4016 17.1642 16.4031 17.0097C16.4032 16.9802 16.4033 16.9507 16.4034 16.9203C16.4037 16.8562 16.4041 16.7921 16.4045 16.728C16.4052 16.6257 16.4056 16.5234 16.4059 16.4211C16.4069 16.1301 16.4082 15.8392 16.41 15.5483C16.4218 13.5325 16.2858 11.6941 14.8326 10.1567C14.7656 10.0777 14.7656 10.0777 14.7266 9.96049C15.3794 9.47864 16.0438 9.3599 16.8402 9.36222Z" fill="#A65FC2"/>
<path d="M18.0852 4.10147C18.1282 4.12956 18.1282 4.12956 18.172 4.15823C18.6297 4.48166 18.9043 4.96541 19.0227 5.50772C19.082 6.23709 18.9625 6.83327 18.4905 7.40713C18.113 7.8126 17.6018 8.0622 17.0474 8.09378C16.3658 8.10177 15.8194 7.9334 15.3118 7.46084C14.8343 6.95412 14.7005 6.3843 14.7138 5.71142C14.7374 5.16644 14.9929 4.73518 15.3508 4.33584C16.1293 3.70528 17.2185 3.49998 18.0852 4.10147Z" fill="#A65FC2"/>
<path d="M4.33519 4.10147C4.37817 4.12956 4.37817 4.12956 4.42202 4.15823C4.87968 4.48166 5.15426 4.96541 5.27269 5.50772C5.33204 6.23709 5.21248 6.83327 4.74047 7.40713C4.36299 7.8126 3.85175 8.0622 3.29744 8.09378C2.61583 8.10177 2.06941 7.9334 1.56176 7.46084C1.08434 6.95412 0.950543 6.3843 0.963765 5.71142C0.987383 5.16644 1.24294 4.73518 1.60082 4.33584C2.37933 3.70528 3.46845 3.49998 4.33519 4.10147Z" fill="#A65FC2"/>
</g>
<defs>
<clipPath id="clip0_128_4889">
<rect width="20" height="20" fill="white"/>
</clipPath>
</defs>
</svg>
